# xmcd
#
# Track frame offsets:
#	150
#	18232
#	29630
#	46757
#	63937
#	78762
#	88075
#	97075
#	110167
#	128227
#	151912
#	158840
#	176880
#	188127
#	199147
#	221122
#	235947
#	251735
#	270710
#	285375
#
# Disc length: 4052 seconds
#
# Revision: 0
# Processed by: cddbd v1.5.1PL0 Copyright (c) Steve Scherf et al.
# Submitted via: dBpowerAMP V4.0
#
DISCID=1c0fd214
DTITLE=Wille Nelson - Willie Nelson: On The Road Again
DYEAR=1900
DGENRE=
TTITLE0=Autumn Leaves
TTITLE1=Don't Get Around Much Anymore
TTITLE2=Unchained Melody
TTITLE3=Harbor Lights
TTITLE4=I Fall To Pieces
TTITLE5=If You've Got The Money, I've Got The Time
TTITLE6=Rollin In My Sweet Baby's Arm
TTITLE7=Good Hearted Woman
TTITLE8=Help Me Make It Through The Night
TTITLE9=Me and Bobby McGee
TTITLE10=Hello Walls
TTITLE11=Red Headed Stranger
TTITLE12=Heartaches of a Fool
TTITLE13=Time of The Preacher
TTITLE14=Tougher Than Leather
TTITLE15=Would You Lay With Me (In a Field of Stone)
TTITLE16=Old Friends
TTITLE17=Half a Man
TTITLE18=Everything's Beautiful (In It's Own Way)
TTITLE19=Casey's Last Ride
EXTD=Reader's Digest Release
EXTT0=
EXTT1=
EXTT2=
EXTT3=
EXTT4=
EXTT5=
EXTT6=
EXTT7=
EXTT8=
EXTT9=
EXTT10=
EXTT11=
EXTT12=
EXTT13=
EXTT14=
EXTT15=
EXTT16=
EXTT17=
EXTT18=
EXTT19=
PLAYORDER=
